<svg xmlns="http://www.w3.org/2000/svg" xmlns:xlink="http://www.w3.org/1999/xlink" viewBox="0 0 280 200" width="280" height="200" preserveAspectRatio="xMidYMid meet" style="width: 100%; height: 100%; transform: translate3d(0px, 0px, 0px); content-visibility: visible;"><defs><clipPath id="__lottie_element_2"><rect width="280" height="200" x="0" y="0"></rect></clipPath></defs><g clip-path="url(#__lottie_element_2)"><g transform="matrix(1.3299992084503174,0,0,1.3299992084503174,-488.8236083984375,330.4888610839844)" opacity="1" style="display: block;"><g opacity="1" transform="matrix(1,0,0,1,0,0)"><path fill="rgb(157,196,245)" fill-opacity="1" d=" M472.79998779296875,-102.19999694824219 C528.7000122070312,-102.19999694824219 574.0999755859375,-134 574.0999755859375,-173.3000030517578 C574.0999755859375,-212.60000610351562 528.7999877929688,-244.39999389648438 472.79998779296875,-244.39999389648438 C416.79998779296875,-244.39999389648438 371.5,-212.60000610351562 371.5,-173.3000030517578 C371.5,-134 416.79998779296875,-102.19999694824219 472.79998779296875,-102.19999694824219z"></path><path stroke-linecap="butt" stroke-linejoin="miter" fill-opacity="0" stroke-miterlimit="10" stroke="rgb(0,20,5)" stroke-opacity="1" stroke-width="2" d=" M472.79998779296875,-102.19999694824219 C528.7000122070312,-102.19999694824219 574.0999755859375,-134 574.0999755859375,-173.3000030517578 C574.0999755859375,-212.60000610351562 528.7999877929688,-244.39999389648438 472.79998779296875,-244.39999389648438 C416.79998779296875,-244.39999389648438 371.5,-212.60000610351562 371.5,-173.3000030517578 C371.5,-134 416.79998779296875,-102.19999694824219 472.79998779296875,-102.19999694824219z"></path></g><g opacity="1" transform="matrix(1,0,0,1,0,0)"><path fill="rgb(157,196,245)" fill-opacity="1" d=" M472.79998779296875,-102.19999694824219 C528.7000122070312,-102.19999694824219 574.0999755859375,-134 574.0999755859375,-173.3000030517578 C574.0999755859375,-212.60000610351562 528.7999877929688,-244.39999389648438 472.79998779296875,-244.39999389648438 C416.79998779296875,-244.39999389648438 371.5,-212.60000610351562 371.5,-173.3000030517578 C371.5,-134 416.79998779296875,-102.19999694824219 472.79998779296875,-102.19999694824219z"></path><path stroke-linecap="butt" stroke-linejoin="miter" fill-opacity="0" stroke-miterlimit="10" stroke="rgb(0,20,5)" stroke-opacity="1" stroke-width="2" d=" M472.79998779296875,-102.19999694824219 C528.7000122070312,-102.19999694824219 574.0999755859375,-134 574.0999755859375,-173.3000030517578 C574.0999755859375,-212.60000610351562 528.7999877929688,-244.39999389648438 472.79998779296875,-244.39999389648438 C416.79998779296875,-244.39999389648438 371.5,-212.60000610351562 371.5,-173.3000030517578 C371.5,-134 416.79998779296875,-102.19999694824219 472.79998779296875,-102.19999694824219z"></path></g><g opacity="1" transform="matrix(1,0,0,1,0,0)"><path fill="rgb(255,90,77)" fill-opacity="1" d=" M472.8999938964844,-148.5 C486.70001220703125,-148.5 497.8999938964844,-159.6999969482422 497.8999938964844,-173.5 C497.8999938964844,-187.3000030517578 486.70001220703125,-198.5 472.8999938964844,-198.5 C459.1000061035156,-198.5 447.8999938964844,-187.3000030517578 447.8999938964844,-173.5 C447.8999938964844,-159.6999969482422 459.1000061035156,-148.5 472.8999938964844,-148.5z"></path><path stroke-linecap="butt" stroke-linejoin="miter" fill-opacity="0" stroke-miterlimit="10" stroke="rgb(0,20,5)" stroke-opacity="1" stroke-width="2" d=" M472.8999938964844,-148.5 C486.70001220703125,-148.5 497.8999938964844,-159.6999969482422 497.8999938964844,-173.5 C497.8999938964844,-187.3000030517578 486.70001220703125,-198.5 472.8999938964844,-198.5 C459.1000061035156,-198.5 447.8999938964844,-187.3000030517578 447.8999938964844,-173.5 C447.8999938964844,-159.6999969482422 459.1000061035156,-148.5 472.8999938964844,-148.5z"></path></g><g opacity="1" transform="matrix(1,0,0,1,0,0)"><path fill="rgb(0,20,5)" fill-opacity="1" d=" M472.8999938964844,-163.5 C478.3999938964844,-163.5 482.8999938964844,-168 482.8999938964844,-173.5 C482.8999938964844,-179 478.3999938964844,-183.5 472.8999938964844,-183.5 C467.3999938964844,-183.5 462.8999938964844,-179 462.8999938964844,-173.5 C462.8999938964844,-168 467.3999938964844,-163.5 472.8999938964844,-163.5z"></path></g><g opacity="1" transform="matrix(1,0,0,1,0,0)"><path fill="rgb(251,231,78)" fill-opacity="1" d=" M447.5,-198.60000610351562 C447.5,-198.60000610351562 498.29998779296875,-198.60000610351562 498.29998779296875,-198.60000610351562 C498.29998779296875,-212.60000610351562 486.8999938964844,-224 472.8999938964844,-224 C458.8999938964844,-224 447.5,-212.60000610351562 447.5,-198.60000610351562 C447.5,-198.60000610351562 447.5,-198.60000610351562 447.5,-198.60000610351562z"></path><path stroke-linecap="butt" stroke-linejoin="miter" fill-opacity="0" stroke-miterlimit="10" stroke="rgb(0,20,5)" stroke-opacity="1" stroke-width="2" d=" M447.5,-198.60000610351562 C447.5,-198.60000610351562 498.29998779296875,-198.60000610351562 498.29998779296875,-198.60000610351562 C498.29998779296875,-212.60000610351562 486.8999938964844,-224 472.8999938964844,-224 C458.8999938964844,-224 447.5,-212.60000610351562 447.5,-198.60000610351562 C447.5,-198.60000610351562 447.5,-198.60000610351562 447.5,-198.60000610351562z"></path></g><g opacity="1" transform="matrix(1,0,0,1,0,0)"><path fill="rgb(251,231,78)" fill-opacity="1" d=" M498.29998779296875,-147.8000030517578 C498.29998779296875,-147.8000030517578 447.5,-147.8000030517578 447.5,-147.8000030517578 C447.5,-133.8000030517578 458.8999938964844,-122.4000015258789 472.8999938964844,-122.4000015258789 C486.8999938964844,-122.4000015258789 498.29998779296875,-133.8000030517578 498.29998779296875,-147.8000030517578 C498.29998779296875,-147.8000030517578 498.29998779296875,-147.8000030517578 498.29998779296875,-147.8000030517578z"></path><path stroke-linecap="butt" stroke-linejoin="miter" fill-opacity="0" stroke-miterlimit="10" stroke="rgb(0,20,5)" stroke-opacity="1" stroke-width="2" d=" M498.29998779296875,-147.8000030517578 C498.29998779296875,-147.8000030517578 447.5,-147.8000030517578 447.5,-147.8000030517578 C447.5,-133.8000030517578 458.8999938964844,-122.4000015258789 472.8999938964844,-122.4000015258789 C486.8999938964844,-122.4000015258789 498.29998779296875,-133.8000030517578 498.29998779296875,-147.8000030517578 C498.29998779296875,-147.8000030517578 498.29998779296875,-147.8000030517578 498.29998779296875,-147.8000030517578z"></path></g><g opacity="1" transform="matrix(1,0,0,1,0,0)"><path fill="rgb(251,231,78)" fill-opacity="1" d=" M498.29998779296875,-198.60000610351562 C498.29998779296875,-198.60000610351562 498.29998779296875,-147.8000030517578 498.29998779296875,-147.8000030517578 C512.2999877929688,-147.8000030517578 523.7000122070312,-159.1999969482422 523.7000122070312,-173.1999969482422 C523.7000122070312,-187.1999969482422 512.2999877929688,-198.60000610351562 498.29998779296875,-198.60000610351562 C498.29998779296875,-198.60000610351562 498.29998779296875,-198.60000610351562 498.29998779296875,-198.60000610351562z"></path><path stroke-linecap="butt" stroke-linejoin="miter" fill-opacity="0" stroke-miterlimit="10" stroke="rgb(0,20,5)" stroke-opacity="1" stroke-width="2" d=" M498.29998779296875,-198.60000610351562 C498.29998779296875,-198.60000610351562 498.29998779296875,-147.8000030517578 498.29998779296875,-147.8000030517578 C512.2999877929688,-147.8000030517578 523.7000122070312,-159.1999969482422 523.7000122070312,-173.1999969482422 C523.7000122070312,-187.1999969482422 512.2999877929688,-198.60000610351562 498.29998779296875,-198.60000610351562 C498.29998779296875,-198.60000610351562 498.29998779296875,-198.60000610351562 498.29998779296875,-198.60000610351562z"></path></g><g opacity="1" transform="matrix(1,0,0,1,0,0)"><path fill="rgb(251,231,78)" fill-opacity="1" d=" M447.5,-147.8000030517578 C447.5,-147.8000030517578 447.5,-198.60000610351562 447.5,-198.60000610351562 C433.5,-198.60000610351562 422.1000061035156,-187.1999969482422 422.1000061035156,-173.1999969482422 C422.1000061035156,-159.1999969482422 433.5,-147.8000030517578 447.5,-147.8000030517578 C447.5,-147.8000030517578 447.5,-147.8000030517578 447.5,-147.8000030517578z"></path><path stroke-linecap="butt" stroke-linejoin="miter" fill-opacity="0" stroke-miterlimit="10" stroke="rgb(0,20,5)" stroke-opacity="1" stroke-width="2" d=" M447.5,-147.8000030517578 C447.5,-147.8000030517578 447.5,-198.60000610351562 447.5,-198.60000610351562 C433.5,-198.60000610351562 422.1000061035156,-187.1999969482422 422.1000061035156,-173.1999969482422 C422.1000061035156,-159.1999969482422 433.5,-147.8000030517578 447.5,-147.8000030517578 C447.5,-147.8000030517578 447.5,-147.8000030517578 447.5,-147.8000030517578z"></path></g><g opacity="1" transform="matrix(1,0,0,1,1,0)"><path fill="rgb(251,231,78)" fill-opacity="1" d=" M523.7000122070312,-198.60000610351562 C523.7000122070312,-198.60000610351562 498.29998779296875,-198.60000610351562 498.29998779296875,-198.60000610351562 C498.29998779296875,-198.60000610351562 498.29998779296875,-224 498.29998779296875,-224 C512.2999877929688,-224 523.7000122070312,-212.60000610351562 523.7000122070312,-198.60000610351562z"></path><path stroke-linecap="butt" stroke-linejoin="miter" fill-opacity="0" stroke-miterlimit="10" stroke="rgb(0,20,5)" stroke-opacity="1" stroke-width="2" d=" M523.7000122070312,-198.60000610351562 C523.7000122070312,-198.60000610351562 498.29998779296875,-198.60000610351562 498.29998779296875,-198.60000610351562 C498.29998779296875,-198.60000610351562 498.29998779296875,-224 498.29998779296875,-224 C512.2999877929688,-224 523.7000122070312,-212.60000610351562 523.7000122070312,-198.60000610351562z"></path></g><g opacity="1" transform="matrix(1,0,0,1,0,0)"><path fill="rgb(251,231,78)" fill-opacity="1" d=" M447.5,-224 C447.5,-224 447.5,-198.60000610351562 447.5,-198.60000610351562 C447.5,-198.60000610351562 422.1000061035156,-198.60000610351562 422.1000061035156,-198.60000610351562 C422.1000061035156,-212.60000610351562 433.5,-224 447.5,-224z"></path><path stroke-linecap="butt" stroke-linejoin="miter" fill-opacity="0" stroke-miterlimit="10" stroke="rgb(0,20,5)" stroke-opacity="1" stroke-width="2" d=" M447.5,-224 C447.5,-224 447.5,-198.60000610351562 447.5,-198.60000610351562 C447.5,-198.60000610351562 422.1000061035156,-198.60000610351562 422.1000061035156,-198.60000610351562 C422.1000061035156,-212.60000610351562 433.5,-224 447.5,-224z"></path></g><g opacity="1" transform="matrix(1,0,0,1,0,0)"><path fill="rgb(251,231,78)" fill-opacity="1" d=" M422.1000061035156,-147.8000030517578 C422.1000061035156,-147.8000030517578 447.5,-147.8000030517578 447.5,-147.8000030517578 C447.5,-147.8000030517578 447.5,-122.4000015258789 447.5,-122.4000015258789 C433.5,-122.4000015258789 422.1000061035156,-133.8000030517578 422.1000061035156,-147.8000030517578z"></path><path stroke-linecap="butt" stroke-linejoin="miter" fill-opacity="0" stroke-miterlimit="10" stroke="rgb(0,20,5)" stroke-opacity="1" stroke-width="2" d=" M422.1000061035156,-147.8000030517578 C422.1000061035156,-147.8000030517578 447.5,-147.8000030517578 447.5,-147.8000030517578 C447.5,-147.8000030517578 447.5,-122.4000015258789 447.5,-122.4000015258789 C433.5,-122.4000015258789 422.1000061035156,-133.8000030517578 422.1000061035156,-147.8000030517578z"></path></g><g opacity="1" transform="matrix(1,0,0,1,0,0)"><path fill="rgb(251,231,78)" fill-opacity="1" d=" M498.29998779296875,-122.4000015258789 C498.29998779296875,-122.4000015258789 498.29998779296875,-147.8000030517578 498.29998779296875,-147.8000030517578 C498.29998779296875,-147.8000030517578 523.7000122070312,-147.8000030517578 523.7000122070312,-147.8000030517578 C523.7000122070312,-133.8000030517578 512.2999877929688,-122.4000015258789 498.29998779296875,-122.4000015258789z"></path><path stroke-linecap="butt" stroke-linejoin="miter" fill-opacity="0" stroke-miterlimit="10" stroke="rgb(0,20,5)" stroke-opacity="1" stroke-width="2" d=" M498.29998779296875,-122.4000015258789 C498.29998779296875,-122.4000015258789 498.29998779296875,-147.8000030517578 498.29998779296875,-147.8000030517578 C498.29998779296875,-147.8000030517578 523.7000122070312,-147.8000030517578 523.7000122070312,-147.8000030517578 C523.7000122070312,-133.8000030517578 512.2999877929688,-122.4000015258789 498.29998779296875,-122.4000015258789z"></path></g></g></g></svg>